<?xml version="1.0" encoding="UTF-8" standalone="no"?>
<svg
   version="1.1"
   width="1023.9999pt"
   height="1023.9999pt"
   id="svg17"
   viewBox="0 0 1023.9999 1023.9999"
   sodipodi:docname="BRAND LOGO.cdr"
   xmlns:inkscape="http://www.inkscape.org/namespaces/inkscape"
   xmlns:sodipodi="http://sodipodi.sourceforge.net/DTD/sodipodi-0.dtd"
   xmlns="http://www.w3.org/2000/svg"
   xmlns:svg="http://www.w3.org/2000/svg">
  <defs
     id="defs21" />
  <sodipodi:namedview
     id="namedview19"
     pagecolor="#ffffff"
     bordercolor="#000000"
     borderopacity="0.25"
     inkscape:showpageshadow="2"
     inkscape:pageopacity="0.0"
     inkscape:pagecheckerboard="0"
     inkscape:deskcolor="#d1d1d1"
     inkscape:document-units="pt" />
  <text
     x="115.9359"
     y="756.71039"
     id="text4"><tspan
       font-family="'Gotham Light'"
       font-size="100px"
       id="tspan2">N I v a I n c .</tspan></text>
  <g
     id="Layer1000">
    <path
       d="M 799.3755,869.3489 H -0.7072 V 697.5255 h 800.0827 z"
       style="fill:none"
       id="path6" />
  </g>
  <path
     d="m 884.9344,350.8699 h 12.5 v 161.13 H 884.9945 L 884.9344,511.9701 645.0347,378.79 V 511.9999 H 632.5345 L 391.4651,378.89 V 511.9999 H 378.9649 L 139.0652,378.82 v 133.1799 h -12.5 v -161.13 h 12.5 l 239.8997,136.22 v -136.22 h 12.5002 l 241.0694,136.25 v -136.25 h 12.5002 v 0.07 l 0.04,-0.07 239.8597,136.1899 z"
     style="fill:#004e98;fill-rule:evenodd"
     id="path9" />
  <path
     d="m 882.3402,317.7139 c 0,-4.5803 3.7196,-8.2902 8.2899,-8.2902 4.5802,0 8.2902,3.7099 8.2902,8.2902 0,4.57 -3.71,8.2899 -8.2902,8.2899 -4.5703,0 -8.2899,-3.7199 -8.2899,-8.2899 z"
     style="fill:#004e98;fill-rule:evenodd"
     id="path11" />
  <path
     d="m 882.5695,515.2198 h -0.0598 v -0.0301 z"
     style="fill:#004e98;fill-rule:evenodd"
     id="path13" />
  <path
     d="M 0,0 V 1023.9999 H 1023.9999 V 0 Z"
     style="fill:none;stroke:#1b1918;stroke-width:0.5669;stroke-linecap:butt;stroke-linejoin:miter;stroke-dasharray:none"
     id="path15" />
</svg>
